<svg xmlns="http://www.w3.org/2000/svg" width="1145.2" height="695.2" viewBox="0 0 1145.2 695.2"><defs><linearGradient id="mainGrad" x1="11.8" x2="207.3" y1="25.6" y2="-169.9" gradientUnits="userSpaceOnUse"><stop offset="0%" stop-color="#f1c40f"/><stop offset="100%" stop-color="#80eb14"/></linearGradient></defs><g fill="url(#mainGrad)" transform="translate(572.6 347.6)"><path d="M3.4-25.2 5-27.8l2.4-1.7 2.9-.7 3 .4 2.5 1.6 1.7 2.4.7 2.9-.4 3 .6-1.8.6-1.8.7-1.7.6-1.8.7-1.7.6-1.8.6-1.7.7-1.8.6-1.7.6-1.6.6-1.6.7-1.7.7-1.7.7-1.7.7-1.8.7-1.7.7-1.7.7-1.7.7-1.6.6-1.6.7-1.5.8-1.6.8-1.6.9-1.6.8-1.7.9-1.6.9-1.7.8-1.6.8-1.5.6-1.5.8-1.4 1-1.4 1-1.5 1-1.6 1-1.5 1.1-1.5 1-1.6 1-1.5 1-1.4.8-1.4.9-1.3 1-1.3 1.3-1.3 1.3-1.4 1.3-1.4 1.2-1.3 1.3-1.4 1.2-1.3 1.1-1.4 1-1.2 1-1.2 1.3-1.1 1.4-1.2 1.5-1.1 1.5-1.1 1.4-1.2 1.5-1.1 1.4-1.1 1.3-1.2 1.2-1.1 1.2-1 1.4-1 1.6-.8 1.6-.9 1.6-.8 1.6-.9 1.7-.8 1.5-1 1.5-.8 1.4-1 1.5-.9 1.7-.7 1.8-.6 2-.6 1.8-.5 2-.6 1.8-.6 1.7-.7 1.7-.8 1.6-.6 1.8-.4 1.8-.2 1.9-.1 1.9-.2 1.8-.1 2-.2h3.4l1.7.4 1.9.4 2 .4 1.9.3 2 .4 1.9.4 1.7.5 1.4.9 1.3 1 1.4 1 1.7.8 1.6.8 1.7.8 1.6.9 1.3.9.8 1 .7 1.2 1 1.3 1.1 1.2 1.3 1.2 1.2 1.3 1.2 1.2.8 1.1.4 1 .3 1.1.4 1.4.7 1.5.8 1.6.8 1.6.7 1.5.5 1.2.2 1v1l.1 1.5.2 1.7.2 1.8.2 1.8.2 1.7.2 1.5v2.3l-.3 1.5-.3 1.8-.3 1.9-.3 1.8-.3 1.8-.3 1.6-.1 1.3-.4 1.4-.6 1.5-.8 1.7-.8 1.8-.9 1.8-.7 1.8-.7 1.6-.5 1.4-.5 1.2-.9 1.3-1 1.4-1.1 1.4-1.1 1.4L147-49l-1 1.4-1 1.3-.7 1.2-1 1.2-1.2 1.3-1.4 1.2-1.6 1.2-1.5 1.3-1.5 1.2-1.3 1.3-1 1.1-1.3 1.1-1.4 1-1.6.8-1.6.8-1.7.8-1.6.9-1.5 1-1.3.9-1.5.8-1.6.7-1.9.5-1.9.4-1.8.5-1.8.6-1.5.7-1.6.5-1.6.2h-5.1l-1.6-.3-1.4-.6-1.4-.8-1.5-.6L94-26l-1.7-.5L91-27l-1-.9-1.2-1-1.2-1-1.4-1-1.2-1-.8-1.1-.6-1-.8-1.2-.9-1.2-.7-1-.5-1.1-.4-1.2-.5-1.3-.5-1.4-.4-1.2-.2-1.2-.3-1.4-.3-1.4-.2-1.2v-1.3l-.2-1.4V-53l-.1-1.4v-6.1l-.6 3-1.8 2.6-2.6 1.7-3.1.6-3-.6-2.6-1.8-1.7-2.6-.6-3.1v8.6l.2 1.8.2 1.8.3 2 .5 2 .4 2 .7 2 .8 2 1 2 1 2 1.2 1.8 1.4 1.8 1.6 1.6 1.3 1.4 1.3 1.2 1.4 1.2 1.9 1.2 2 1 1.9 1 1.7.9 1.8.7 2.1.6 2.2.3 1.9.4 1.7.4 1.8.4 1.8.2 2-.1 2-.3 1.8-.2h5.2l1.9.3 2 .2h2l2-.1 2-.4 1.9-.5 1.9-.4 2-.3 2.2-.3 2.2-.4 1.9-.7 1.7-.8 1.7-.8 1.6-.8 1.8-.8 1.9-.8 2-.9 2.1-1 1.8-1.2 1.6-1.2 1.5-1.2 1.6-1.3 1.6-1.2 1.7-1.3 2-1.4 1.7-1.5 1.4-1.4 1.1-1.4 1.2-1.4 1-1.4L161-45l1.2-1.4 1.3-1.6 1.5-1.8 1.4-2 1-2 1-1.8.8-1.8.8-1.8.9-1.9 1-2 1-2.4.8-2.4.5-2.2.3-2 .4-1.8.3-2 .3-1.9.4-2.2.2-2.6V-85l-.2-2.2-.3-2-.2-1.7-.2-1.9-.3-1.9-.4-2.1-.8-2.4-1-2.4-1-1.9-.7-1.7-.8-1.6-.8-1.6-.9-1.6-1.1-1.8-1.6-1.8-1.8-1.7-1.7-1.5-1.3-1.2-1.3-1.3-1.3-1.2-1.3-1.3-1.7-1.2-2.1-1-2.3-.8-2-.8-1.7-.8-1.7-.8-1.7-.8-1.7-.8-2-.6-2.2-.3h-2.3l-2.2-.2-2-.3-2-.3-2-.3-2-.3-2-.2h-2.1l-2.1.2h-2l-2 .2-1.8.2-1.9.1-1.9.1-1.9.2h-2l-2.1-.1-2.2.1-2 .4-2 .5-1.9.6-1.9.5-1.9.6-2 .5-2 .5-2.1.5-2 .5-2 .8-1.6.8-1.6.8-1.7.9-1.6.8-1.6.9-1.7.8-1.8.8-2 .9-1.9 1-1.7 1L63-115l-1.5 1.1-1.4 1.1-1.5 1.2-1.5 1.1-1.5 1.2-1.6 1.1-1.8 1.3-1.7 1.3-1.5 1.4-1.3 1.3-1.3 1.4-1.3 1.4-1.2 1.3-1.3 1.4-1.3 1.4-1.4 1.4-1.5 1.5-1.5 1.6-1.2 1.6-1.1 1.6-1 1.5-1.1 1.5-1 1.6-1.2 1.5-1 1.5L28-79l-1.2 1.7-1.2 1.8-1 1.7-.9 1.7-.8 1.6-.9 1.6-.9 1.7-.8 1.6-1 1.7-.8 1.7-1 1.8-.9 1.9-.8 1.8L15-55l-.8 1.7-.7 1.7-.7 1.8-.7 1.7-.7 1.7-.8 1.8-.7 1.8-.8 1.8-.6 1.8-.7 1.7-.6 1.8-.7 1.7-.6 1.8-.7 1.7-.6 1.8L4-27Z"/><path d="m15.6-20.1 2.6-1.5 3-.3 2.8.9 2.3 1.8 1.5 2.6.3 3-.9 2.9-1.8 2.3 1.4-1.2 1.4-1.2 1.5-1.2 1.4-1.2 1.4-1.2 1.4-1.2 1.5-1.2 1.4-1.2 1.4-1.1 1.3-1.2 1.4-1 1.4-1.2 1.5-1.1 1.4-1.1 1.5-1.2 1.5-1 1.5-1.2 1.4-1.1 1.4-1.1 1.3-1 1.4-1 1.4-1 1.6-1 1.5-1 1.6-1 1.6-1 1.5-1 1.6-1 1.4-1 1.3-.8 1.4-.9 1.5-.8 1.6-.8 1.7-.8 1.7-.8 1.7-.7 1.7-.8 1.6-.8 1.5-.8 1.4-.8 1.4-.7 1.6-.6 1.7-.5 1.8-.6 1.8-.5 1.8-.6 1.8-.5 1.7-.6 1.6-.6 1.5-.6 1.5-.5 1.6-.3 1.8-.3 1.9-.2 1.8-.3 1.9-.2 1.8-.3 1.8-.3 1.7-.3 1.5-.4 1.6-.3h5.3l1.9.1h1.8l1.8.2h3.6l1.6-.2h1.7l1.9.2 1.9.4 2 .5 1.8.4 2 .5 1.9.4 1.9.2 1.8.2 1.7.3 1.7.5 1.7.8 1.7.8 1.7.8 1.7.8 1.7.8 1.6.8 1.4 1 1.4 1.1 1.3 1.3 1.5 1.3 1.6 1.3 1.5 1.3 1.4 1.2 1.3 1.4.8 1.5.6 1.5.7 1.5 1 1.6 1 1.5 1 1.6 1 1.5.7 1.4.2 1.4v1.3l.2 1.5.4 1.7.5 1.7.4 1.7.4 1.6.2 1.4-.1 1.1-.4 1.1-.3 1.4-.1 1.7-.2 1.7v1.8l-.2 1.6-.2 1.4-.3 1-.5.9-.7 1.2-.7 1.6-.7 1.7-.7 1.7-.6 1.5-.6 1.4-.5 1-.7 1-1 1.1-1.1 1.4-1.3 1.5-1.2 1.5-1.1 1.4-1 1.2-.9 1-1 1-1.2 1-1.6 1.2-1.6 1.1L165 24l-1.6 1.1-1.3 1-1.1 1-1.1.8-1.4.7-1.6.7-1.6.6-1.7.7-1.7.7-1.6.6-1.4.7-1.3.7-1.4.6-1.7.5-1.8.3-2 .3-2 .3-1.8.4-1.8.4-1.5.5-1.6.3-1.7.1h-1.8l-1.8-.2-1.9-.1h-3.6l-1.6.2h-1.7l-1.7-.3-1.9-.5-1.8-.6-1.9-.5-1.8-.3-1.7-.2-1.6-.3-1.5-.7-1.5-.8-1.4-.8-1.5-1-1.2-1-1-1.2-.8-1.4-1-1.3-1.1-1.3-1.1-1.2-1-1.3-.5-1.4-.3-1.4-.6-1.6-.7-1.5-.6-1.5-.1-1.3v-1.2l-.1-1.4-.2-1.4L89 8l.1-1.2.3-1.2.2-1.4.2-1.5.3-1.2.4-1.2.4-1.3.5-1.3.4-1.2.6-1.1.6-1.3.6-1.3.7-1.3.7-1.2.7-1.3.8-1.3.9-1.4-2.1 2.3-2.8 1.4-3.2.1-3-1-2.2-2-1.4-3-.1-3 1-3-.8 1.4L82-19l-1 1.5-.8 1.6-.8 1.6-.8 1.6-.8 1.7-.7 2-.6 2-.6 1.8-.4 2-.3 2.2-.2 2.3v4.3l.4 2.3.5 2.2.5 1.8.5 1.7.6 1.8 1 2 1.3 1.8L81 21l1 1.6 1.2 1.6 1.6 1.5 1.7 1.4 1.5 1.3 1.3 1.2 1.3 1.2 1.5 1.1 1.8 1 1.8.7 1.7.7 1.5.9 1.5.8 1.5 1 1.5 1 1.6 1.3 1.8 1 1.8.9 1.9.6 1.8.6 1.9.6 2 .7 2 .9 2 .7 2 .3 2 .2 1.8.1 1.8.2 2 .1 2 .3 2.2.3 2.3.1h2.1l2-.4 2-.3 2-.3 2-.2 2.1-.3 2.3-.2 2.3-.4 2-.6 1.6-.6 1.7-.7 1.7-.6 1.7-.7 1.7-.7 2-.7 2.2-.8 2.1-1 2-1.2 1.6-1.1 1.7-1.2 1.6-1.1 1.7-1.2 1.9-1.3 2-1.6 1.9-1.6 1.5-1.7L187 25l1.3-1.4 1.2-1.5 1.3-1.6 1.4-1.7 1.4-2.1 1.3-2.3 1-2 .7-1.7.7-1.7.7-1.7.7-1.8.7-2L200 1l.3-2.5.1-2.2.2-1.9v-1.7l.2-1.8V-13l-.5-2.5-.7-2.4-.7-2-.5-1.8-.5-1.7-.5-1.7-.6-1.8-.8-1.8-1.3-2-1.6-1.8-1.3-1.7-1.1-1.6-1-1.5-1.1-1.5-1.2-1.6L186-42l-1.8-1.3-1.9-1.3-1.8-1.2-1.6-1.3-1.5-1.2-1.6-1.3-1.6-1.2-1.7-1.2-1.9-1-1.8-1-1.8-.9-1.7-.8-1.7-.8-1.7-.8-1.7-.9-1.7-.8-1.8-1-1.8-1.2-2-1-1.9-.6-2-.6-1.9-.4-1.9-.5-2-.4-1.9-.5-2-.7-2-.6-2.1-.6-2-.3-1.9-.1h-1.8l-1.8-.2h-1.9l-1.8-.1-1.9-.1-2-.2-2-.3h-4.2l-1.9.2-1.8.3-1.9.2-1.8.3-1.9.2-1.9.3-2 .1-2.1.2-2.2.3-2 .5-1.8.5-1.7.6-1.8.5-1.8.5-1.8.6-1.8.5-2 .6-2 .5-2 .7-2 .8-1.7.7-1.7.8-1.6.8-1.7.8-1.7.8-1.7.8-1.8.9-2 .8-1.8 1-1.8 1-1.6 1-1.6 1-1.5 1-1.6 1-1.6 1-1.6 1-1.6 1-1.8 1-1.7 1.2-1.6 1.2-1.5 1.1-1.4 1.1-1.5 1.2-1.5 1-1.5 1.2-1.5 1.1-1.5 1.2-1.6 1.2-1.5 1.2-1.5 1.2-1.4 1.2-1.5 1.2-1.4 1.2-1.4 1.2-1.4 1.2-1.5 1.2-1.4 1.2Z"/><path d="M23.6-9.6h3l2.7 1.2 2 2.2 1 2.8v3l-1.2 2.7-2.1 2-2.8 1.1 1.8-.3 1.9-.3 1.8-.4 1.8-.3 1.9-.3 1.8-.3L39 3l1.8-.3 1.8-.3 1.7-.3 1.8-.3 1.8-.2 1.8-.3 1.8-.2 1.9-.2 1.8-.3 1.9-.2 1.8-.3 1.7-.2 1.7-.2 1.6-.2 1.8-.1 1.8-.1 1.9-.1h1.8l1.9-.2h1.8l1.9-.1 1.7-.1 1.6-.2h3.3l1.8.2 1.9.1 1.8.2 1.9.1 1.8.2 1.8.1h1.7l1.6.1 1.6.1 1.7.3 1.8.4 1.8.4 1.8.4 1.8.5 1.8.4 1.8.4 1.7.3 1.5.2 1.6.3 1.6.5 1.7.7 1.7.7 1.7.7 1.8.7 1.7.7 1.7.7 1.6.5 1.6.4 1.5.6 1.5.7 1.5 1 1.6 1 1.5 1 1.6 1 1.5.9 1.6 1 1.5.7 1.5.7 1.5.9 1.5 1.1 1.4 1.3 1.5 1.4 1.4 1.3 1.5 1.4 1.4 1.3 1.5 1.2 1.5 1 1.3 1.1 1.2 1.3 1.1 1.5L165 34l1 1.5 1.1 1.6 1.1 1.5 1 1.5.8 1.6.5 1.6.6 1.9.6 1.8.7 1.9.7 1.9.6 1.8.4 1.8V56l-.3 1.7v3.5l.1 1.9.1 1.8.1 1.8-.2 1.6-.4 1.3-.7 1.1-.6 1.5-.5 1.6-.5 1.7-.4 1.7-.5 1.6-.5 1.3-.7.9-.8.7-1 1.1-1 1.4-1 1.4-1 1.5-.9 1.3-.8 1.1-.8.7-.9.5-1.1.8-1.4 1-1.5 1.1-1.4 1.1-1.4 1-1.2 1-1 .6-1 .5-1.4.5-1.7.6-1.8.7-1.8.6-1.7.7-1.5.6-1.2.5-1.4.3-1.6.3-1.9.2-2 .1-2 .2-1.9.2-1.7.3-1.4.2-1.3.2-1.6-.1-1.7-.2-1.7-.3-1.8-.3-1.8-.2-1.7-.2-1.6-.1h-1.5l-1.5-.2-1.6-.5-1.8-.7-1.9-.7-1.8-.7-1.8-.6-1.8-.5-1.6-.4-1.5-.5-1.5-.7-1.5-1-1.5-1-1.6-1-1.5-1-1.6-.8-1.5-.7-1.4-.8-1.4-1.2-1.4-1.3-1.3-1.4-1.4-1.4-1.3-1.2-1.4-1-1.2-1.1-1-1.3-1-1.4-.8-1.5-.7-1.5-.6-1.5-.2-1.6v-1.6l-.2-1.6-.4-1.7-.3-1.6-.1-1.6.2-1.4.4-1.5.2-1.6.2-1.7.3-1.5.5-1.2.6-1L72 54l.5-1.4.6-1.2.7-.9.8-.9 1-1.1.8-1.2 1-1 .8-.7 1-1 1.1-.9 1-.8 1-.7 1.2-.8 1.2-.8L86 40l1.2-.7 1.3-.7 1.4-.8 1.4-.7-3 1-3-.3-2.9-1.4-2-2.4-1-3 .3-3 1.3-3 2.4-2-1.4.8-1.4.8-1.5.8-1.6 1-1.5 1-1.5 1-1.5 1-1.6 1.4-1.6 1.3-1.4 1.4-1.3 1.5-1.4 1.8-1.3 1.9-1.1 1.8-1 2-.9 2-.6 2.2-.5 1.9-.5 1.7-.3 1.9v2.1l.1 2.3v2l.2 2 .2 2 .6 2 .8 2.1.6 1.9.5 1.7.6 1.7.7 1.7 1 1.7 1.3 1.5 1 1.5 1 1.5.8 1.5.8 1.6.8 1.6.8 1.9 1 1.8 1.2 1.7 1.3 1.4 1.3 1.4 1.3 1.5 1.3 1.6 1.4 1.8 1.4 1.6 1.5 1.3 1.6 1.1 1.5 1 1.6 1.1 1.6 1 1.6 1.3 1.8 1.4 1.9 1.3 1.9 1 1.8.7 1.9.7 1.8.8 2 .7 1.9.9 2.1 1 2.2.7 2 .5 1.8.3 1.7.3 1.8.2 1.8.3 1.8.3 2 .4 2.4.3 2.4.2h2.2l2-.2 2-.1 2-.2 2.1-.2 2.3-.2 2.5-.3 2.5-.5 2.1-.6 2-.7 1.7-.7 1.8-.6 1.9-.7 2.1-.8 2.3-1.1 2.2-1.3 1.8-1.3 1.5-1.1 1.5-1.1 1.5-1.2 1.5-1.1 1.6-1.5 1.8-1.9 1.5-2 1.2-1.8 1-1.5 1-1.5 1-1.5 1-1.5 1-2 .8-2.3.5-2.4.4-2 .5-1.9.4-1.7.4-1.7.4-1.8.2-2-.1-2.4-.4-2.4-.3-2.1-.2-2-.2-1.8-.1-1.8-.2-2-.5-2-.9-2-1-2-1-2-.7-1.9-.7-1.9-.7-1.8-.8-1.9-1-1.8-1-1.9-1.1-1.8L172 36l-1.1-1.6-1-1.6-1.1-1.5-1.1-1.6-1-1.6-1-1.7-1-2-1.3-1.7-1.3-1.6-1.4-1.4-1.5-1.4-1.4-1.4-1.4-1.3-1.5-1.4-1.4-1.6L152 11l-1.5-1.5-1.6-1.2-1.5-1-1.6-1-1.5-1-1.6-1-1.5-1-1.6-1-1.6-1.2-1.7-1.3-1.8-1.1-1.8-1L131-3l-1.7-.7-1.8-.7-1.7-.7-1.7-.8-1.8-.7-1.8-.8-2-1-2-.8-1.9-.6-1.8-.4-1.8-.4-1.9-.5-1.8-.4-1.8-.4-1.8-.5-2-.5-2-.5-2.2-.4-2-.3-1.9-.2-1.8-.2-1.9-.1-1.8-.2-1.9-.1-1.9-.2-2-.2-2-.2h-7.9l-1.9.1-1.8.1h-1.9l-1.9.1-2 .1h-2l-2 .2-2 .2-1.8.2-1.9.3-1.8.2-1.9.3-1.8.2-1.9.2-1.9.3-2 .2-1.9.3-1.9.3-1.8.3-1.8.3-1.9.4-1.8.3-1.8.3-1.9.3-1.8.3Z"/><path d="M25.2 3.4 27.8 5l1.7 2.4.7 2.9-.4 3-1.6 2.5-2.4 1.7-2.9.7-3-.4 1.8.6 1.8.6 1.7.7 1.8.6 1.7.7 1.8.6 1.7.6 1.8.7 1.7.6 1.6.6 1.6.6 1.7.7 1.7.7 1.7.7 1.8.7 1.7.7 1.7.7 1.7.7 1.6.7 1.6.6 1.5.7 1.6.8 1.6.8 1.6.9 1.7.8 1.6.9 1.7.9 1.6.8 1.5.8 1.5.6 1.4.8 1.4 1 1.5 1 1.6 1 1.5 1 1.5 1.1 1.6 1 1.5 1 1.4 1 1.4.8 1.3.9 1.3 1 1.3 1.3 1.4 1.3 1.4 1.3 1.3 1.2 1.4 1.3 1.3 1.2 1.4 1.1 1.2 1 1.2 1 1.1 1.3 1.2 1.4 1.1 1.5 1.1 1.5 1.2 1.4 1.1 1.5 1.1 1.4 1.2 1.3 1.1 1.2 1 1.2 1 1.4.8 1.6.9 1.6.8 1.6.9 1.6.8 1.7 1 1.5.8 1.5 1 1.4.9 1.5.7 1.7.6 1.8.6 2 .5 1.8.6 2 .6 1.8.7 1.7.8 1.7.6 1.6.4 1.8.2 1.8.1 1.9.2 1.9.1 1.8.2 2v3.4l-.4 1.7-.4 1.9-.4 2-.3 1.9-.4 2-.4 1.9-.5 1.7-.9 1.4-1 1.3-1 1.4-.8 1.7-.8 1.6-.8 1.7-.9 1.6-.9 1.3-1 .8-1.2.7-1.3 1-1.2 1.1-1.2 1.3-1.3 1.2-1.2 1.2-1.1.8-1 .4-1.1.3-1.4.4-1.5.7-1.6.8-1.6.8-1.5.7-1.2.5-1 .2h-1l-1.5.1-1.7.2-1.8.2-1.8.2-1.7.2-1.5.2h-2.3l-1.5-.3-1.8-.3-1.9-.3-1.8-.3-1.8-.3-1.6-.3-1.3-.1-1.4-.4-1.5-.6-1.7-.8-1.8-.8-1.8-.9-1.8-.7-1.6-.7-1.4-.5-1.2-.5-1.3-.9-1.4-1-1.4-1.1-1.4-1.1L49 147l-1.4-1-1.3-1-1.2-.7-1.2-1-1.3-1.2-1.2-1.4-1.2-1.6-1.3-1.5-1.2-1.5-1.3-1.3-1.1-1-1.1-1.3-1-1.4-.8-1.6-.8-1.6-.8-1.7-.9-1.6-1-1.5-.9-1.3-.8-1.5-.7-1.6-.5-1.9-.4-1.9-.5-1.8-.6-1.8-.7-1.5-.5-1.6-.2-1.6v-5.1l.3-1.6.6-1.4.8-1.4.6-1.5.6-1.6.5-1.7.7-1.4.9-1 1-1.2 1-1.2 1-1.4 1-1.2 1.1-.8 1-.6 1.2-.8 1.2-.9 1-.7 1.1-.5 1.2-.4 1.3-.5 1.4-.5 1.2-.4 1.2-.2 1.4-.3 1.4-.3 1.2-.2h1.3l1.4-.2H53l1.4-.1h6.1l-3-.6-2.6-1.8-1.7-2.6-.6-3.1.6-3 1.8-2.6 2.6-1.7 3.1-.6h-8.6l-1.8.2-1.8.2-2 .3-2 .5-2 .4-2 .7-2 .8-2 1-2 1-1.8 1.2-1.8 1.4-1.6 1.6-1.4 1.3-1.2 1.3-1.2 1.4-1.2 1.9-1 2-1 1.9-.9 1.7-.7 1.8-.6 2.1-.3 2.2-.4 1.9L19 92l-.4 1.8-.2 1.8.1 2 .3 2 .2 1.8v5.2l-.3 1.9-.2 2v2l.1 2 .4 2 .5 1.9.4 1.9.3 2 .3 2.2.4 2.2.7 1.9.8 1.7.8 1.7.8 1.6.8 1.8.8 1.9.9 2 1 2.1 1.2 1.8 1.2 1.6 1.2 1.5 1.3 1.6 1.2 1.6 1.3 1.7 1.4 2 1.5 1.7 1.4 1.4 1.4 1.1 1.4 1.2 1.4 1L45 161l1.4 1.2 1.6 1.3 1.8 1.5 2 1.4 2 1 1.8 1 1.8.8 1.8.8 1.9.9 2 1 2.4 1 2.4.8 2.2.5 2 .3 1.8.4 2 .3 1.9.3 2.2.4 2.6.2H85l2.2-.2 2-.3 1.7-.2 1.9-.2 1.9-.3 2.1-.4 2.4-.8 2.4-1 1.9-1 1.7-.7 1.6-.8 1.6-.8 1.6-.9 1.8-1.1 1.8-1.6 1.7-1.8 1.5-1.7 1.2-1.3 1.3-1.3 1.2-1.3 1.3-1.3 1.2-1.7 1-2.1.8-2.3.8-2 .8-1.7.8-1.7.8-1.7.8-1.7.6-2 .3-2.2v-2.3l.2-2.2.3-2 .3-2 .3-2 .3-2 .2-2v-2.1l-.2-2.1v-2l-.2-2-.2-1.8-.1-1.9-.1-1.9-.2-1.9v-2l.1-2.1-.1-2.2-.4-2-.5-2-.6-1.9-.5-1.9-.6-1.9-.5-2-.5-2-.5-2.1-.5-2-.8-2-.8-1.6-.8-1.6-.9-1.7-.8-1.6-.9-1.6-.8-1.7-.8-1.8-.9-2-1-1.9-1-1.7L115 63l-1.1-1.5-1.1-1.4-1.2-1.5-1.1-1.5-1.2-1.5-1.1-1.6-1.3-1.8-1.3-1.7-1.4-1.5-1.3-1.3-1.4-1.3-1.4-1.3-1.3-1.2-1.4-1.3-1.4-1.3-1.4-1.4-1.5-1.5-1.6-1.5-1.6-1.2-1.6-1.1-1.5-1-1.5-1.1-1.6-1-1.5-1.2-1.5-1L79 28l-1.7-1.2-1.8-1.2-1.7-1-1.7-.9-1.6-.8-1.6-.9-1.7-.9-1.6-.8-1.7-1-1.7-.8-1.8-1-1.9-.9-1.8-.8L55 15l-1.7-.8-1.7-.7-1.8-.7-1.7-.7-1.7-.7-1.8-.8-1.8-.7-1.8-.8-1.8-.6-1.7-.7-1.8-.6-1.7-.7-1.8-.6-1.7-.7-1.8-.6L27 4Z"/><path d="m20.1 15.6 1.5 2.6.3 3L21 24l-1.8 2.3-2.6 1.5-3 .3-2.9-.9-2.3-1.8 1.2 1.4 1.2 1.4 1.2 1.5 1.2 1.4 1.2 1.4 1.2 1.4 1.2 1.5 1.2 1.4 1.1 1.4 1.2 1.3 1 1.4 1.2 1.4 1.1 1.5 1.1 1.4 1.2 1.5 1 1.5 1.2 1.5 1.1 1.4 1.1 1.4 1 1.3 1 1.4 1 1.4 1 1.6 1 1.5 1 1.6 1 1.6 1 1.5 1 1.6 1 1.4.8 1.3.9 1.4.8 1.5.8 1.6.8 1.7.8 1.7.7 1.7.8 1.7.8 1.6.8 1.5.8 1.4.7 1.4.6 1.6.5 1.7.6 1.8.5 1.8.6 1.8.5 1.8.6 1.7.6 1.6.6 1.5.5 1.5.3 1.6.3 1.8.2 1.9.3 1.8.2 1.9.3 1.8.3 1.8.3 1.7.4 1.5.3 1.6v5.3l-.1 1.9v1.8l-.2 1.8v3.6l.2 1.6v1.7l-.2 1.9-.4 1.9-.5 2-.4 1.8-.5 2-.4 1.9-.2 1.9-.2 1.8-.3 1.7-.5 1.7-.8 1.7-.8 1.7-.8 1.7-.8 1.7-.8 1.7-.8 1.6-1 1.4-1.1 1.4-1.3 1.3-1.3 1.5-1.3 1.6-1.3 1.5-1.2 1.4-1.4 1.3-1.5.8-1.5.6-1.5.7-1.6 1-1.5 1-1.6 1-1.5 1-1.4.7-1.4.2h-1.3l-1.5.2-1.7.4-1.7.5-1.7.4-1.6.4-1.4.2-1.1-.1-1.1-.4-1.4-.3-1.7-.1-1.7-.2H6.7l-1.6-.2-1.4-.2-1-.3-.9-.5-1.2-.7-1.6-.7-1.7-.7-1.7-.7-1.5-.6-1.4-.6-1-.5-1-.7-1.1-1-1.4-1.1-1.5-1.3-1.5-1.2-1.4-1.1-1.2-1-1-.9-1-1-1-1.2-1.2-1.6-1.1-1.6-1.2-1.6-1.1-1.6-1-1.3-1-1.1-.8-1.1-.7-1.4-.7-1.6-.6-1.6-.7-1.7-.7-1.7-.6-1.6-.7-1.4-.7-1.3-.6-1.4-.5-1.7-.3-1.8-.3-2-.3-2-.4-1.8-.4-1.8-.5-1.5-.3-1.6-.1-1.7v-1.8l.2-1.8.1-1.9v-3.6l-.2-1.6v-1.7l.3-1.7.5-1.9.6-1.8.5-1.9.3-1.8.2-1.7.3-1.6.7-1.5.8-1.5.8-1.4 1-1.5 1-1.2 1.2-1 1.4-.8 1.3-1 1.3-1.1 1.2-1.1 1.3-1 1.4-.5 1.4-.3 1.6-.6 1.5-.7 1.5-.6 1.3-.1h1.2l1.4-.1 1.4-.2L-8 89l1.2.1 1.2.3 1.4.2 1.5.2 1.2.3 1.2.4 1.3.4 1.3.5 1.2.4 1.1.6 1.3.6 1.3.6 1.3.7 1.2.7 1.3.7 1.3.8 1.4.9-2.3-2.1-1.4-2.8-.1-3.2 1-3 2-2.2 3-1.4 3-.1 3 1-1.4-.8L19 82l-1.5-1-1.6-.8-1.6-.8-1.6-.8-1.7-.8-2-.7-2-.6-1.8-.6-2-.4-2.2-.3-2.3-.2h-4.3l-2.3.4-2.2.5-1.8.5-1.7.5-1.8.6-2 1-1.8 1.3L-21 81l-1.6 1-1.6 1.2-1.5 1.6-1.4 1.7-1.3 1.5-1.2 1.3-1.2 1.3-1.1 1.5-1 1.8-.7 1.8-.7 1.7-.9 1.5-.8 1.5-1 1.5-1 1.5-1.3 1.6-1 1.8-.9 1.8-.6 1.9-.6 1.8-.6 1.9-.7 2-.9 2-.7 2-.3 2-.2 2-.1 1.8-.2 1.8-.1 2-.3 2-.3 2.2-.1 2.3v2.1l.4 2 .3 2 .3 2 .2 2 .3 2.1.2 2.3.4 2.3.6 2 .6 1.6.7 1.7.6 1.7.7 1.7.7 1.7.7 2 .8 2.2 1 2.1 1.2 2 1.1 1.6 1.2 1.7 1.1 1.6 1.2 1.7 1.3 1.9 1.6 2 1.6 1.9 1.7 1.5 1.5 1.3 1.4 1.3 1.5 1.2 1.6 1.3 1.7 1.4 2.1 1.4 2.3 1.3 2 1 1.7.7 1.7.7 1.7.7 1.8.7 2 .7 2.5.6 2.5.3 2.2.1 1.9.2h1.7l1.8.2h3.9l2.5-.5 2.4-.7 2-.7 1.8-.5 1.7-.5 1.7-.5 1.8-.6 1.8-.8 2-1.3 1.8-1.6 1.7-1.3 1.6-1.1 1.5-1 1.5-1.1 1.6-1.2L42 186l1.3-1.8 1.3-1.9 1.2-1.8 1.3-1.6 1.2-1.5 1.3-1.6 1.2-1.6 1.2-1.7 1-1.9 1-1.8.9-1.8.8-1.7.8-1.7.8-1.7.9-1.7.8-1.7 1-1.8 1.2-1.8 1-2 .6-1.9.6-2 .4-1.9.5-1.9.4-2 .5-1.9.7-2 .6-2 .6-2.1.3-2 .1-1.9v-1.8l.2-1.8v-1.9l.1-1.8.1-1.9.2-2 .3-2v-4.2l-.2-1.9-.3-1.8-.2-1.9-.3-1.8-.2-1.9-.3-1.9-.1-2-.2-2.1-.3-2.2-.5-2-.5-1.8-.6-1.7-.5-1.8-.5-1.8-.6-1.8-.5-1.8-.6-2-.5-2-.7-2-.8-2-.7-1.7-.8-1.7-.8-1.6-.8-1.7-.8-1.7-.8-1.7-.9-1.8-.8-2-1-1.8-1-1.8-1-1.6-1-1.6-1-1.5-1-1.6-1-1.6-1-1.6-1-1.6-1-1.8-1.2-1.7-1.2-1.6-1.1-1.5-1.1-1.4-1.2-1.5-1-1.5-1.2-1.5-1.1-1.5-1.2-1.5-1.2-1.6-1.2-1.5-1.2-1.5-1.2-1.4-1.2-1.5-1.2-1.4-1.2-1.4-1.2-1.4-1.2-1.5-1.2-1.4Z"/><path d="M9.6 23.6v3l-1.2 2.7-2.2 2-2.8 1h-3l-2.7-1.2-2-2.1-1.1-2.8.3 1.8.3 1.9.4 1.8.3 1.8.3 1.9.3 1.8.4 1.8.3 1.8.3 1.8.3 1.7.3 1.8.2 1.8.3 1.8.2 1.8.2 1.9.3 1.8.2 1.9.3 1.8.2 1.7.2 1.7.2 1.6.1 1.8.1 1.8.1 1.9v1.8l.2 1.9v1.8l.1 1.9.1 1.7.2 1.6v3.3L1 85.2v1.9l-.2 1.8-.1 1.9-.2 1.8-.1 1.8v1.7l-.1 1.6-.1 1.6-.3 1.7-.4 1.8-.4 1.8-.4 1.8-.5 1.8-.4 1.8-.4 1.8-.3 1.7-.2 1.5-.3 1.6-.5 1.6-.7 1.7-.7 1.7-.7 1.7-.7 1.8-.7 1.7-.7 1.7-.5 1.6-.4 1.6-.6 1.5-.7 1.5-1 1.5-1 1.6-1 1.5-1 1.6-.9 1.5-1 1.6-.7 1.5-.7 1.5-.9 1.5-1.1 1.5-1.3 1.4-1.4 1.5-1.3 1.4-1.4 1.5-1.3 1.4-1.2 1.5-1 1.5-1.1 1.3-1.3 1.2-1.5 1.1-1.6 1.1-1.5 1-1.6 1.1-1.5 1.1-1.5 1-1.6.8-1.6.5-1.9.6-1.8.6-1.9.7-1.9.7-1.8.6-1.8.4H-56l-1.7-.3h-3.5l-1.9.1-1.8.1-1.8.1-1.6-.2-1.3-.4-1.1-.7-1.5-.6-1.6-.5-1.7-.5-1.7-.4-1.6-.5-1.3-.5-.9-.7-.7-.8-1.1-1-1.4-1-1.4-1-1.5-1-1.3-.9-1.1-.8-.7-.8-.5-.9-.8-1.1-1-1.4-1.1-1.5-1.1-1.4-1-1.4-1-1.2-.6-1-.5-1-.5-1.4-.6-1.7-.7-1.8-.6-1.8-.7-1.7-.6-1.5-.5-1.2-.3-1.4-.3-1.6-.2-1.9-.1-2-.2-2-.2-1.9-.3-1.7-.2-1.4-.2-1.3.1-1.6.2-1.7.3-1.7.3-1.8.2-1.8.2-1.7.1-1.6v-1.5l.2-1.5.5-1.6.7-1.8.7-1.9.7-1.8.6-1.8.5-1.8.4-1.6.5-1.5.7-1.5 1-1.5 1-1.5 1-1.6 1-1.5.8-1.6.7-1.5.8-1.4 1.2-1.4 1.3-1.4 1.4-1.3 1.4-1.4 1.2-1.3 1-1.4 1.1-1.2 1.3-1 1.4-1 1.5-.8 1.5-.7 1.5-.6 1.6-.2h1.6l1.6-.2 1.7-.4 1.6-.3 1.6-.1 1.4.2 1.5.4 1.6.2 1.7.2 1.5.3 1.2.5 1 .6 1.3.6 1.4.5 1.2.6.9.7.9.8 1.1 1 1.2.8 1 1 .7.8 1 1 .9 1.1.8 1 .7 1 .8 1.2.8 1.2.8 1.2.7 1.2.7 1.3.8 1.4.7 1.4-1-3 .3-3 1.4-2.9 2.4-2 3-1 3 .3L-25 81l2 2.4-.8-1.4-.8-1.4-.8-1.5-1-1.6-1-1.5-1-1.5-1-1.5-1.4-1.6-1.3-1.6-1.4-1.4-1.5-1.3-1.8-1.4-1.9-1.3-1.8-1.1-2-1-2-.9-2.2-.6-1.9-.5-1.7-.5-1.9-.3h-2.1l-2.3.1h-2l-2 .2-2 .2-2 .6-2.1.8-1.9.6-1.7.5-1.7.6-1.7.7-1.7 1-1.5 1.3-1.5 1-1.5 1-1.5.8-1.6.8-1.6.8-1.9.8-1.8 1-1.7 1.2-1.4 1.3-1.4 1.3-1.5 1.3-1.6 1.3-1.8 1.4-1.6 1.4-1.3 1.5-1.1 1.6-1 1.5-1.1 1.6-1 1.6-1.3 1.6-1.4 1.8-1.3 1.9-1 1.9-.7 1.8-.7 1.9-.8 1.8-.7 2-.9 1.9-1 2.1-.7 2.2-.5 2-.3 1.8-.3 1.7-.2 1.8-.3 1.8-.3 1.8-.4 2-.3 2.4-.2 2.4v2.2l.2 2 .1 2 .2 2 .2 2.1.2 2.3.3 2.5.5 2.5.6 2.1.7 2 .7 1.7.6 1.8.7 1.9.8 2.1 1.1 2.3 1.3 2.2 1.3 1.8 1.1 1.5 1.1 1.5 1.2 1.5 1.1 1.5 1.5 1.6 1.9 1.8 2 1.5 1.8 1.2 1.5 1 1.5 1 1.5 1 1.5 1 2 1 2.3.8 2.4.5 2 .4 1.9.5 1.7.4 1.7.4 1.8.4 2 .2 2.4-.1 2.4-.4 2.1-.3 2-.2 1.8-.2 1.8-.1 2-.2 2-.5 2-.9 2-1 2-1 1.9-.7 1.9-.7 1.8-.7 1.9-.8 1.8-1 1.9-1 1.8-1.1 1.6-1.1 1.6-1.1 1.6-1 1.5-1.1 1.6-1.1 1.6-1 1.7-1 2-1 1.7-1.3 1.6-1.3 1.4-1.4 1.4-1.5 1.4-1.4 1.3-1.4 1.4-1.5 1.6-1.4 1.6-1.5 1.5-1.5 1.2-1.6 1-1.5 1-1.6 1-1.5 1-1.6 1-1.5 1-1.6 1.2-1.6 1.3-1.7 1.1-1.8 1-1.8.7-1.7.7-1.7.7-1.8.7-1.7.8-1.7.7-1.8.8-1.8 1-2 .8-2 .6-1.9.4-1.8.4-1.8.5-1.9.4-1.8.4-1.8.5-1.8.5-2 .5-2 .4-2.2.3-2 .2-1.9.2-1.8.1-1.9.2-1.8.1-1.9.2-1.9.2-2 .2-2v-7.9l-.1-1.9-.1-1.8v-1.9l-.1-1.9-.1-2v-2l-.2-2-.2-2-.2-1.8-.3-1.9-.2-1.8-.3-1.9-.2-1.8-.2-1.9L13 44l-.2-2-.3-1.9-.3-1.9-.3-1.8-.3-1.8-.4-1.9L11 31l-.3-1.8-.3-1.9-.3-1.8Z"/><path d="M-3.4 25.2-5 27.8l-2.4 1.7-2.9.7-3-.4-2.5-1.6-1.7-2.4-.7-2.9.4-3-.6 1.8-.6 1.8-.7 1.7-.6 1.8-.7 1.7-.6 1.8-.6 1.7-.7 1.8-.6 1.7-.6 1.6-.6 1.6-.7 1.7-.7 1.7-.7 1.7-.7 1.8-.7 1.7-.7 1.7-.7 1.7-.7 1.6-.6 1.6-.7 1.5-.8 1.6-.8 1.6-.9 1.6-.8 1.7-.9 1.6-.9 1.7-.8 1.6-.8 1.5-.6 1.5-.8 1.4-1 1.4-1 1.5-1 1.6-1 1.5-1.1 1.5-1 1.6-1 1.5-1 1.4-.8 1.4-.9 1.3-1 1.3-1.3 1.3-1.3 1.4-1.3 1.4-1.2 1.3-1.3 1.4-1.2 1.3-1.1 1.4-1 1.2-1 1.2-1.3 1.1-1.4 1.2-1.5 1.1-1.5 1.1-1.4 1.2-1.5 1.1-1.4 1.1-1.3 1.2-1.2 1.1-1.2 1-1.4 1-1.6.8-1.6.9-1.6.8-1.6.9-1.7.8-1.5 1-1.5.8-1.4 1-1.5.9-1.7.7-1.8.6-2 .6-1.8.5-2 .6-1.8.6-1.7.7-1.7.8-1.6.6-1.8.4-1.8.2-1.9.1-1.9.2-1.8.1-2 .2h-3.4l-1.7-.4-1.9-.4-2-.4-1.9-.3-2-.4-1.9-.4-1.7-.5-1.4-.9-1.3-1-1.4-1-1.7-.8-1.6-.8-1.7-.8-1.6-.9-1.3-.9-.8-1-.7-1.2-1-1.3-1.1-1.2-1.3-1.2-1.2-1.3-1.2-1.2-.8-1.1-.4-1-.3-1.1-.4-1.4-.7-1.5-.8-1.6-.8-1.6-.7-1.5-.5-1.2-.2-1v-1l-.1-1.5-.2-1.7-.2-1.8-.2-1.8-.2-1.7-.2-1.5v-2.3l.3-1.5.3-1.8.3-1.9.3-1.8.3-1.8.3-1.6.1-1.3.4-1.4.6-1.5.8-1.7.8-1.8.9-1.8.7-1.8.7-1.6.5-1.4.5-1.2.9-1.3 1-1.4 1.1-1.4 1.1-1.4 1.1-1.4 1-1.4 1-1.3.7-1.2 1-1.2 1.2-1.3 1.4-1.2 1.6-1.2 1.5-1.3 1.5-1.2 1.3-1.3 1-1.1 1.3-1.1 1.4-1 1.6-.8 1.6-.8 1.7-.8 1.6-.9 1.5-1 1.3-.9 1.5-.8 1.6-.7 1.9-.5 1.9-.4 1.8-.5 1.8-.6 1.5-.7 1.6-.5 1.6-.2h5.1l1.6.3 1.4.6 1.4.8 1.5.6 1.6.6 1.7.5 1.4.7 1 .9 1.2 1 1.2 1 1.4 1 1.2 1 .8 1.1.6 1 .8 1.2.9 1.2.7 1 .5 1.1.4 1.2.5 1.3.5 1.4.4 1.2.2 1.2.3 1.4.3 1.4.2 1.2v1.3l.2 1.4V53l.1 1.4v6.1l.6-3 1.8-2.6 2.6-1.7 3.1-.6 3 .6 2.6 1.8 1.7 2.6.6 3.1v-8.6l-.2-1.8-.2-1.8-.3-2-.5-2-.4-2-.7-2-.8-2-1-2-1-2-1.2-1.8-1.4-1.8-1.6-1.6-1.3-1.4-1.3-1.2-1.4-1.2-1.9-1.2-2-1-1.9-1-1.7-.9-1.8-.7-2.1-.6-2.2-.3-1.9-.4-1.7-.4-1.8-.4-1.8-.2-2 .1-2 .3-1.8.2h-5.2l-1.9-.3-2-.2h-2l-2 .1-2 .4-1.9.5-1.9.4-2 .3-2.2.3-2.2.4-1.9.7-1.7.8-1.7.8-1.6.8-1.8.8-1.9.8-2 .9-2.1 1-1.8 1.2-1.6 1.2-1.5 1.2-1.6 1.3-1.6 1.2-1.7 1.3-2 1.4-1.7 1.5-1.4 1.4-1.1 1.4-1.2 1.4-1 1.4-1.2 1.5-1.2 1.4-1.3 1.6-1.5 1.8-1.4 2-1 2-1 1.8-.8 1.8-.8 1.8-.9 1.9-1 2-1 2.4-.8 2.4-.5 2.2-.3 2-.4 1.8-.3 2-.3 1.9-.4 2.2-.2 2.6V85l.2 2.2.3 2 .2 1.7.2 1.9.3 1.9.4 2.1.8 2.4 1 2.4 1 1.9.7 1.7.8 1.6.8 1.6.9 1.6 1.1 1.8 1.6 1.8 1.8 1.7 1.7 1.5 1.3 1.2 1.3 1.3 1.3 1.2 1.3 1.3 1.7 1.2 2.1 1 2.3.8 2 .8 1.7.8 1.7.8 1.7.8 1.7.8 2 .6 2.2.3h2.3l2.2.2 2 .3 2 .3 2 .3 2 .3 2 .2h2.1l2.1-.2h2l2-.2 1.8-.2 1.9-.1 1.9-.1 1.9-.2h2l2.1.1 2.2-.1 2-.4 2-.5 1.9-.6 1.9-.5 1.9-.6 2-.5 2-.5 2.1-.5 2-.5 2-.8 1.6-.8 1.6-.8 1.7-.9 1.6-.8 1.6-.9 1.7-.8 1.8-.8 2-.9 1.9-1 1.7-1 1.5-1.2 1.5-1.1 1.4-1.1 1.5-1.2 1.5-1.1 1.5-1.2 1.6-1.1 1.8-1.3 1.7-1.3 1.5-1.4 1.3-1.3 1.3-1.4 1.3-1.4 1.2-1.3 1.3-1.4 1.3-1.4 1.4-1.4 1.5-1.5 1.5-1.6 1.2-1.6 1.1-1.6 1-1.5 1.1-1.5 1-1.6 1.2-1.5 1-1.5L-28 79l1.2-1.7 1.2-1.8 1-1.7.9-1.7.8-1.6.9-1.6.9-1.7.8-1.6 1-1.7.8-1.7 1-1.8.9-1.9.8-1.8.7-1.7.8-1.7.7-1.7.7-1.8.7-1.7.7-1.7.8-1.8.7-1.8.8-1.8.6-1.8.7-1.7.6-1.8.7-1.7.6-1.8.7-1.7.6-1.8.6-1.7Z"/><path d="m-15.6 20.1-2.6 1.5-3 .3-2.8-.9-2.3-1.8-1.5-2.6-.3-3 .9-2.9 1.8-2.3-1.4 1.2-1.4 1.2-1.5 1.2-1.4 1.2-1.4 1.2-1.4 1.2-1.5 1.2-1.4 1.2-1.4 1.1-1.3 1.2-1.4 1-1.4 1.2-1.5 1.1-1.4 1.1-1.5 1.2-1.5 1-1.5 1.2-1.4 1.1-1.4 1.1-1.3 1-1.4 1-1.4 1-1.6 1-1.5 1-1.6 1-1.6 1-1.5 1-1.6 1-1.4 1-1.3.8-1.4.9-1.5.8-1.6.8-1.7.8-1.7.8-1.7.7-1.7.8-1.6.8-1.5.8-1.4.8-1.4.7-1.6.6-1.7.5-1.8.6-1.8.5-1.8.6-1.8.5-1.7.6-1.6.6-1.5.6-1.5.5-1.6.3-1.8.3-1.9.2-1.8.3-1.9.2-1.8.3-1.8.3-1.7.3-1.5.4-1.6.3h-5.3l-1.9-.1h-1.8l-1.8-.2h-3.6l-1.6.2h-1.7l-1.9-.2-1.9-.4-2-.5-1.8-.4-2-.5-1.9-.4-1.9-.2-1.8-.2-1.7-.3-1.7-.5-1.7-.8-1.7-.8-1.7-.8-1.7-.8-1.7-.8-1.6-.8-1.4-1-1.4-1.1-1.3-1.3-1.5-1.3-1.6-1.3-1.5-1.3-1.4-1.2-1.3-1.4-.8-1.5-.6-1.5-.7-1.5-1-1.6-1-1.5-1-1.6-1-1.5-.7-1.4-.2-1.4v-1.3l-.2-1.5-.4-1.7-.5-1.7-.4-1.7-.4-1.6-.2-1.4.1-1.1.4-1.1.3-1.4.1-1.7.2-1.7V6.7l.2-1.6.2-1.4.3-1 .5-.9.7-1.2.7-1.6.7-1.7.7-1.7.6-1.5.6-1.4.5-1 .7-1 1-1.1 1.1-1.4 1.3-1.5 1.2-1.5 1.1-1.4 1-1.2.9-1 1-1 1.2-1 1.6-1.2 1.6-1.1 1.6-1.2 1.6-1.1 1.3-1 1.1-1 1.1-.8 1.4-.7 1.6-.7 1.6-.6 1.7-.7 1.7-.7 1.6-.6 1.4-.7 1.3-.7 1.4-.6 1.7-.5 1.8-.3 2-.3 2-.3 1.8-.4 1.8-.4 1.5-.5 1.6-.3 1.7-.1h1.8l1.8.2 1.9.1h3.6l1.6-.2h1.7l1.7.3 1.9.5 1.8.6 1.9.5 1.8.3 1.7.2 1.6.3 1.5.7 1.5.8 1.4.8 1.5 1 1.2 1 1 1.2.8 1.4 1 1.3 1.1 1.3 1.1 1.2 1 1.3.5 1.4.3 1.4.6 1.6.7 1.5.6 1.5.1 1.3v1.2l.1 1.4.2 1.4.1 1.3-.1 1.2-.3 1.2-.2 1.4-.2 1.5-.3 1.2-.4 1.2-.4 1.3-.5 1.3-.4 1.2-.6 1.1-.6 1.3-.6 1.3-.7 1.3-.7 1.2-.7 1.3-.8 1.3-.9 1.4 2.1-2.3 2.8-1.4 3.2-.1 3 1 2.2 2 1.4 3 .1 3-1 3 .8-1.4.8-1.4 1-1.5.8-1.6.8-1.6.8-1.6.8-1.7.7-2 .6-2 .6-1.8.4-2 .3-2.2.2-2.3v-4.3l-.4-2.3-.5-2.2-.5-1.8-.5-1.7-.6-1.8-1-2-1.3-1.8L-81-21l-1-1.6-1.2-1.6-1.6-1.5-1.7-1.4-1.5-1.3-1.3-1.2-1.3-1.2-1.5-1.1-1.8-1-1.8-.7-1.7-.7-1.5-.9-1.5-.8-1.5-1-1.5-1-1.6-1.3-1.8-1-1.8-.9-1.9-.6-1.8-.6-1.9-.6-2-.7-2-.9-2-.7-2-.3-2-.2-1.8-.1-1.8-.2-2-.1-2-.3-2.2-.3-2.3-.1h-2.1l-2 .4-2 .3-2 .3-2 .2-2.1.3-2.3.2-2.3.4-2 .6-1.6.6-1.7.7-1.7.6-1.7.7-1.7.7-2 .7-2.2.8-2.1 1-2 1.2-1.6 1.1-1.7 1.2-1.6 1.1-1.7 1.2-1.9 1.3-2 1.6-1.9 1.6-1.5 1.7-1.3 1.5-1.3 1.4-1.2 1.5-1.3 1.6-1.4 1.7-1.4 2.1-1.3 2.3-1 2-.7 1.7-.7 1.7-.7 1.7-.7 1.8-.7 2-.6 2.5-.3 2.5-.1 2.2-.2 1.9v1.7l-.2 1.8v3.9l.5 2.5.7 2.4.7 2 .5 1.8.5 1.7.5 1.7.6 1.8.8 1.8 1.3 2 1.6 1.8 1.3 1.7 1.1 1.6 1 1.5 1.1 1.5 1.2 1.6 1.4 1.5 1.8 1.3 1.9 1.3 1.8 1.2 1.6 1.3 1.5 1.2 1.6 1.3 1.6 1.2 1.7 1.2 1.9 1 1.8 1 1.8.9 1.7.8 1.7.8 1.7.8 1.7.9 1.7.8 1.8 1 1.8 1.2 2 1 1.9.6 2 .6 1.9.4 1.9.5 2 .4 1.9.5 2 .7 2 .6 2.1.6 2 .3 1.9.1h1.8l1.8.2h1.9l1.8.1 1.9.1 2 .2 2 .3h4.2l1.9-.2 1.8-.3 1.9-.2 1.8-.3 1.9-.2 1.9-.3 2-.1 2.1-.2 2.2-.3 2-.5 1.8-.5 1.7-.6 1.8-.5 1.8-.5 1.8-.6 1.8-.5 2-.6 2-.5 2-.7 2-.8 1.7-.7 1.7-.8 1.6-.8 1.7-.8 1.7-.8 1.7-.8 1.8-.9 2-.8 1.8-1 1.8-1 1.6-1 1.6-1 1.5-1 1.6-1 1.6-1 1.6-1 1.6-1 1.8-1 1.7-1.2 1.6-1.2 1.5-1.1 1.4-1.1 1.5-1.2 1.5-1 1.5-1.2 1.5-1.1 1.5-1.2 1.6-1.2 1.5-1.2 1.5-1.2 1.4-1.2 1.5-1.2 1.4-1.2 1.4-1.2 1.4-1.2 1.5-1.2 1.4-1.2Z"/><path d="M-23.6 9.6h-3l-2.7-1.2-2-2.2-1-2.8v-3l1.2-2.7 2.1-2 2.8-1.1-1.8.3-1.9.3-1.8.4-1.8.3-1.9.3-1.8.3-1.8.4-1.8.3-1.8.3-1.7.3-1.8.3-1.8.2-1.8.3-1.8.2-1.9.2-1.8.3-1.9.2-1.8.3-1.7.2-1.7.2-1.6.2-1.8.1-1.8.1-1.9.1h-1.8l-1.9.2h-1.8l-1.9.1-1.7.1-1.6.2h-3.3l-1.8-.2-1.9-.1-1.8-.2-1.9-.1-1.8-.2-1.8-.1h-1.7l-1.6-.1-1.6-.1-1.7-.3-1.8-.4-1.8-.4-1.8-.4-1.8-.5-1.8-.4-1.8-.4-1.7-.3-1.5-.2-1.6-.3-1.6-.5-1.7-.7-1.7-.7-1.7-.7-1.8-.7-1.7-.7-1.7-.7-1.6-.5-1.6-.4-1.5-.6-1.5-.7-1.5-1-1.6-1-1.5-1-1.6-1-1.5-.9-1.6-1-1.5-.7-1.5-.7-1.5-.9-1.5-1.1-1.4-1.3-1.5-1.4-1.4-1.3-1.5-1.4-1.4-1.3-1.5-1.2-1.5-1-1.3-1.1-1.2-1.3-1.1-1.5-1.1-1.6-1-1.5-1.1-1.6-1.1-1.5-1-1.5-.8-1.6-.5-1.6-.6-1.9-.6-1.8-.7-1.9-.7-1.9-.6-1.8-.4-1.8V-56l.3-1.7v-3.5l-.1-1.9-.1-1.8-.1-1.8.2-1.6.4-1.3.7-1.1.6-1.5.5-1.6.5-1.7.4-1.7.5-1.6.5-1.3.7-.9.8-.7 1-1.1 1-1.4 1-1.4 1-1.5.9-1.3.8-1.1.8-.7.9-.5 1.1-.8 1.4-1 1.5-1.1 1.4-1.1 1.4-1 1.2-1 1-.6 1-.5 1.4-.5 1.7-.6 1.8-.7 1.8-.6 1.7-.7 1.5-.6 1.2-.5 1.4-.3 1.6-.3 1.9-.2 2-.1 2-.2 1.9-.2 1.7-.3 1.4-.2 1.3-.2 1.6.1 1.7.2 1.7.3 1.8.3 1.8.2 1.7.2 1.6.1h1.5l1.5.2 1.6.5 1.8.7 1.9.7 1.8.7 1.8.6 1.8.5 1.6.4 1.5.5 1.5.7 1.5 1 1.5 1 1.6 1 1.5 1 1.6.8 1.5.7 1.4.8 1.4 1.2 1.4 1.3 1.3 1.4 1.4 1.4 1.3 1.2 1.4 1 1.2 1.1 1 1.3 1 1.4.8 1.5.7 1.5.6 1.5.2 1.6v1.6l.2 1.6.4 1.7.3 1.6.1 1.6-.2 1.4-.4 1.5-.2 1.6-.2 1.7-.3 1.5-.5 1.2-.6 1-.6 1.3-.5 1.4-.6 1.2-.7.9-.8.9-1 1.1-.8 1.2-1 1-.8.7-1 1-1.1.9-1 .8-1 .7-1.2.8-1.2.8-1.2.8-1.2.7-1.3.7-1.4.8-1.4.7 3-1 3 .3 2.9 1.4 2 2.4 1 3-.3 3L-81-25l-2.4 2 1.4-.8 1.4-.8 1.5-.8 1.6-1 1.5-1 1.5-1 1.5-1 1.6-1.4 1.6-1.3 1.4-1.4 1.3-1.5 1.4-1.8 1.3-1.9 1.1-1.8 1-2 .9-2 .6-2.2.5-1.9.5-1.7.3-1.9v-2.1l-.1-2.3v-2l-.2-2-.2-2-.6-2-.8-2.1-.6-1.9-.5-1.7-.6-1.7-.7-1.7-1-1.7-1.3-1.5-1-1.5-1-1.5-.8-1.5-.8-1.6-.8-1.6-.8-1.9-1-1.8-1.2-1.7-1.3-1.4-1.3-1.4-1.3-1.5-1.3-1.6-1.4-1.8-1.4-1.6-1.5-1.3-1.6-1.1-1.5-1-1.6-1.1-1.6-1-1.6-1.3-1.8-1.4-1.9-1.3-1.9-1-1.8-.7-1.9-.7-1.8-.8-2-.7-1.9-.9-2.1-1-2.2-.7-2-.5-1.8-.3-1.7-.3-1.8-.2-1.8-.3-1.8-.3-2-.4-2.4-.3-2.4-.2h-2.2l-2 .2-2 .1-2 .2-2.1.2-2.3.2-2.5.3-2.5.5-2.1.6-2 .7-1.7.7-1.8.6-1.9.7-2.1.8-2.3 1.1-2.2 1.3-1.8 1.3-1.5 1.1-1.5 1.1-1.5 1.2-1.5 1.1-1.6 1.5-1.8 1.9-1.5 2-1.2 1.8-1 1.5-1 1.5-1 1.5-1 1.5-1 2-.8 2.3-.5 2.4-.4 2-.5 1.9-.4 1.7-.4 1.7-.4 1.8-.2 2 .1 2.4.4 2.4.3 2.1.2 2 .2 1.8.1 1.8.2 2 .5 2 .9 2 1 2 1 2 .7 1.9.7 1.9.7 1.8.8 1.9 1 1.8 1 1.9 1.1 1.8 1.1 1.6 1.1 1.6 1 1.6 1.1 1.5 1.1 1.6 1 1.6 1 1.7 1 2 1.3 1.7 1.3 1.6 1.4 1.4 1.5 1.4 1.4 1.4 1.4 1.3 1.5 1.4 1.4 1.6 1.5 1.6 1.5 1.5 1.6 1.2 1.5 1 1.6 1 1.5 1 1.6 1 1.5 1 1.6 1 1.6 1.2 1.7 1.3 1.8 1.1 1.8 1 1.7.7 1.7.7 1.8.7 1.7.7 1.7.8 1.8.7 1.8.8 2 1 2 .8 1.9.6 1.8.4 1.8.4 1.9.5 1.8.4 1.8.4 1.8.5 2 .5 2 .5 2.2.4 2 .3 1.9.2 1.8.2 1.9.1 1.8.2 1.9.1 1.9.2 2 .2 2 .2h7.9l1.9-.1 1.8-.1h1.9l1.9-.1 2-.1h2l2-.2 2-.2 1.8-.2 1.9-.3 1.8-.2 1.9-.3 1.8-.2 1.9-.2 1.9-.3 2-.2 1.9-.3 1.9-.3 1.8-.3 1.8-.3 1.9-.4 1.8-.3 1.8-.3 1.9-.3 1.8-.3Z"/><path d="M-25.2-3.4-27.8-5l-1.7-2.4-.7-2.9.4-3 1.6-2.5 2.4-1.7 2.9-.7 3 .4-1.8-.6-1.8-.6-1.7-.7-1.8-.6-1.7-.7-1.8-.6-1.7-.6-1.8-.7-1.7-.6-1.6-.6-1.6-.6-1.7-.7-1.7-.7-1.7-.7-1.8-.7-1.7-.7-1.7-.7-1.7-.7-1.6-.7-1.6-.6-1.5-.7-1.6-.8-1.6-.8-1.6-.9-1.7-.8-1.6-.9-1.7-.9-1.6-.8-1.5-.8-1.5-.6-1.4-.8-1.4-1-1.5-1-1.6-1-1.5-1-1.5-1.1-1.6-1-1.5-1-1.4-1-1.4-.8-1.3-.9-1.3-1-1.3-1.3-1.4-1.3-1.4-1.3-1.3-1.2-1.4-1.3-1.3-1.2-1.4-1.1-1.2-1-1.2-1-1.1-1.3-1.2-1.4-1.1-1.5-1.1-1.5-1.2-1.4-1.1-1.5-1.1-1.4-1.2-1.3-1.1-1.2-1-1.2-1-1.4-.8-1.6-.9-1.6-.8-1.6-.9-1.6-.8-1.7-1-1.5-.8-1.5-1-1.4-.9-1.5-.7-1.7-.6-1.8-.6-2-.5-1.8-.6-2-.6-1.8-.7-1.7-.8-1.7-.6-1.6-.4-1.8-.2-1.8-.1-1.9-.2-1.9-.1-1.8-.2-2v-3.4l.4-1.7.4-1.9.4-2 .3-1.9.4-2 .4-1.9.5-1.7.9-1.4 1-1.3 1-1.4.8-1.7.8-1.6.8-1.7.9-1.6.9-1.3 1-.8 1.2-.7 1.3-1 1.2-1.1 1.2-1.3 1.3-1.2 1.2-1.2 1.1-.8 1-.4 1.1-.3 1.4-.4 1.5-.7 1.6-.8 1.6-.8 1.5-.7 1.2-.5 1-.2h1l1.5-.1 1.7-.2 1.8-.2 1.8-.2 1.7-.2 1.5-.2h2.3l1.5.3 1.8.3 1.9.3 1.8.3 1.8.3 1.6.3 1.3.1 1.4.4 1.5.6 1.7.8 1.8.8 1.8.9 1.8.7 1.6.7 1.4.5 1.2.5 1.3.9 1.4 1 1.4 1.1 1.4 1.1 1.4 1.1 1.4 1 1.3 1 1.2.7 1.2 1 1.3 1.2 1.2 1.4 1.2 1.6 1.3 1.5 1.2 1.5 1.3 1.3 1.1 1 1.1 1.3 1 1.4.8 1.6.8 1.6.8 1.7.9 1.6 1 1.5.9 1.3.8 1.5.7 1.6.5 1.9.4 1.9.5 1.8.6 1.8.7 1.5.5 1.6.2 1.6v5.1l-.3 1.6-.6 1.4-.8 1.4-.6 1.5-.6 1.6-.5 1.7-.7 1.4-.9 1-1 1.2-1 1.2-1 1.4-1 1.2-1.1.8-1 .6-1.2.8-1.2.9-1 .7-1.1.5-1.2.4-1.3.5-1.4.5-1.2.4-1.2.2-1.4.3-1.4.3-1.2.2h-1.3l-1.4.2H-53l-1.4.1h-6.1l3 .6 2.6 1.8 1.7 2.6.6 3.1-.6 3-1.8 2.6-2.6 1.7-3.1.6h8.6l1.8-.2 1.8-.2 2-.3 2-.5 2-.4 2-.7 2-.8 2-1 2-1 1.8-1.2 1.8-1.4 1.6-1.6 1.4-1.3 1.2-1.3 1.2-1.4 1.2-1.9 1-2 1-1.9.9-1.7.7-1.8.6-2.1.3-2.2.4-1.9.4-1.7.4-1.8.2-1.8-.1-2-.3-2-.2-1.8v-5.2l.3-1.9.2-2v-2l-.1-2-.4-2-.5-1.9-.4-1.9-.3-2-.3-2.2-.4-2.2-.7-1.9-.8-1.7-.8-1.7-.8-1.6-.8-1.8-.8-1.9-.9-2-1-2.1-1.2-1.8-1.2-1.6-1.2-1.5-1.3-1.6-1.2-1.6-1.3-1.7-1.4-2-1.5-1.7-1.4-1.4-1.4-1.1-1.4-1.2-1.4-1-1.5-1.2-1.4-1.2-1.6-1.3-1.8-1.5-2-1.4-2-1-1.8-1-1.8-.8-1.8-.8-1.9-.9-2-1-2.4-1-2.4-.8-2.2-.5-2-.3-1.8-.4-2-.3-1.9-.3-2.2-.4-2.6-.2H-85l-2.2.2-2 .3-1.7.2-1.9.2-1.9.3-2.1.4-2.4.8-2.4 1-1.9 1-1.7.7-1.6.8-1.6.8-1.6.9-1.8 1.1-1.8 1.6-1.7 1.8-1.5 1.7-1.2 1.3-1.3 1.3-1.2 1.3-1.3 1.3-1.2 1.7-1 2.1-.8 2.3-.8 2-.8 1.7-.8 1.7-.8 1.7-.8 1.7-.6 2-.3 2.2v2.3l-.2 2.2-.3 2-.3 2-.3 2-.3 2-.2 2v2.1l.2 2.1v2l.2 2 .2 1.8.1 1.9.1 1.9.2 1.9v2l-.1 2.1.1 2.2.4 2 .5 2 .6 1.9.5 1.9.6 1.9.5 2 .5 2 .5 2.1.5 2 .8 2 .8 1.6.8 1.6.9 1.7.8 1.6.9 1.6.8 1.7.8 1.8.9 2 1 1.9 1 1.7 1.2 1.5 1.1 1.5 1.1 1.4 1.2 1.5 1.1 1.5 1.2 1.5 1.1 1.6 1.3 1.8 1.3 1.7 1.4 1.5 1.3 1.3 1.4 1.3 1.4 1.3 1.3 1.2 1.4 1.3 1.4 1.3 1.4 1.4 1.5 1.5 1.6 1.5 1.6 1.2 1.6 1.1 1.5 1 1.5 1.1 1.6 1 1.5 1.2 1.5 1L-79-28l1.7 1.2 1.8 1.2 1.7 1 1.7.9 1.6.8 1.6.9 1.7.9 1.6.8 1.7 1 1.7.8 1.8 1 1.9.9 1.8.8 1.7.7 1.7.8 1.7.7 1.8.7 1.7.7 1.7.7 1.8.8 1.8.7 1.8.8 1.8.6 1.7.7 1.8.6 1.7.7 1.8.6 1.7.7 1.8.6 1.7.6Z"/><path d="m-20.1-15.6-1.5-2.6-.3-3 .9-2.8 1.8-2.3 2.6-1.5 3-.3 2.9.9 2.3 1.8-1.2-1.4-1.2-1.4-1.2-1.5-1.2-1.4-1.2-1.4-1.2-1.4-1.2-1.5-1.2-1.4-1.1-1.4-1.2-1.3-1-1.4-1.2-1.4-1.1-1.5-1.1-1.4-1.2-1.5-1-1.5-1.2-1.5-1.1-1.4-1.1-1.4-1-1.3-1-1.4-1-1.4-1-1.6-1-1.5-1-1.6-1-1.6-1-1.5-1-1.6-1-1.4-.8-1.3-.9-1.4-.8-1.5-.8-1.6-.8-1.7-.8-1.7-.7-1.7-.8-1.7-.8-1.6-.8-1.5-.8-1.4-.7-1.4-.6-1.6-.5-1.7-.6-1.8-.5-1.8-.6-1.8-.5-1.8-.6-1.7-.6-1.6-.6-1.5-.5-1.5-.3-1.6-.3-1.8-.2-1.9-.3-1.8-.2-1.9-.3-1.8-.3-1.8-.3-1.7-.4-1.5-.3-1.6v-5.3l.1-1.9v-1.8l.2-1.8v-3.6l-.2-1.6v-1.7l.2-1.9.4-1.9.5-2 .4-1.8.5-2 .4-1.9.2-1.9.2-1.8.3-1.7.5-1.7.8-1.7.8-1.7.8-1.7.8-1.7.8-1.7.8-1.6 1-1.4 1.1-1.4 1.3-1.3 1.3-1.5 1.3-1.6 1.3-1.5 1.2-1.4 1.4-1.3 1.5-.8 1.5-.6 1.5-.7 1.6-1 1.5-1 1.6-1 1.5-1 1.4-.7 1.4-.2h1.3l1.5-.2 1.7-.4 1.7-.5 1.7-.4 1.6-.4 1.4-.2 1.1.1 1.1.4 1.4.3 1.7.1 1.7.2h1.8l1.6.2 1.4.2 1 .3.9.5 1.2.7 1.6.7 1.7.7 1.7.7 1.5.6 1.4.6 1 .5 1 .7 1.1 1 1.4 1.1 1.5 1.3 1.5 1.2 1.4 1.1 1.2 1 1 .9 1 1 1 1.2 1.2 1.6 1.1 1.6L24-165l1.1 1.6 1 1.3 1 1.1.8 1.1.7 1.4.7 1.6.6 1.6.7 1.7.7 1.7.6 1.6.7 1.4.7 1.3.6 1.4.5 1.7.3 1.8.3 2 .3 2 .4 1.8.4 1.8.5 1.5.3 1.6.1 1.7v1.8l-.2 1.8-.1 1.9v3.6l.2 1.6v1.7l-.3 1.7-.5 1.9-.6 1.8-.5 1.9-.3 1.8-.2 1.7-.3 1.6-.7 1.5-.8 1.5-.8 1.4-1 1.5-1 1.2-1.2 1-1.4.8-1.3 1-1.3 1.1-1.2 1.1-1.3 1-1.4.5-1.4.3-1.6.6-1.5.7-1.5.6-1.3.1h-1.2l-1.4.1-1.4.2L8-89l-1.2-.1-1.2-.3-1.4-.2-1.5-.2-1.2-.3-1.2-.4-1.3-.4-1.3-.5-1.2-.4-1.1-.6-1.3-.6-1.3-.6-1.3-.7-1.2-.7-1.3-.7-1.3-.8-1.4-.9 2.3 2.1 1.4 2.8.1 3.2-1 3-2 2.2-3 1.4-3 .1-3-1 1.4.8 1.4.8 1.5 1 1.6.8 1.6.8 1.6.8 1.7.8 2 .7 2 .6 1.8.6 2 .4 2.2.3 2.3.2h4.3l2.3-.4L10-76l1.8-.5 1.7-.5 1.8-.6 2-1 1.8-1.3L21-81l1.6-1 1.6-1.2 1.5-1.6 1.4-1.7 1.3-1.5 1.2-1.3 1.2-1.3 1.1-1.5 1-1.8.7-1.8.7-1.7.9-1.5.8-1.5 1-1.5 1-1.5 1.3-1.6 1-1.8.9-1.8.6-1.9.6-1.8.6-1.9.7-2 .9-2 .7-2 .3-2 .2-2 .1-1.8.2-1.8.1-2 .3-2 .3-2.2.1-2.3v-2.1l-.4-2-.3-2-.3-2-.2-2-.3-2.1-.2-2.3-.4-2.3-.6-2-.6-1.6-.7-1.7-.6-1.7-.7-1.7-.7-1.7-.7-2-.8-2.2-1-2.1-1.2-2-1.1-1.6-1.2-1.7-1.1-1.6-1.2-1.7-1.3-1.9-1.6-2-1.6-1.9-1.7-1.5L25-187l-1.4-1.3-1.5-1.2-1.6-1.3-1.7-1.4-2.1-1.4-2.3-1.3-2-1-1.7-.7-1.7-.7-1.7-.7-1.8-.7-2-.7L1-200l-2.5-.3-2.2-.1-1.9-.2h-1.7l-1.8-.2H-13l-2.5.5-2.4.7-2 .7-1.8.5-1.7.5-1.7.5-1.8.6-1.8.8-2 1.3-1.8 1.6-1.7 1.3-1.6 1.1-1.5 1-1.5 1.1-1.6 1.2-1.5 1.4-1.3 1.8-1.3 1.9-1.2 1.8-1.3 1.6-1.2 1.5-1.3 1.6-1.2 1.6-1.2 1.7-1 1.9-1 1.8-.9 1.8-.8 1.7-.8 1.7-.8 1.7-.9 1.7-.8 1.7-1 1.8-1.2 1.8-1 2-.6 1.9-.6 2-.4 1.9-.5 1.9-.4 2-.5 1.9-.7 2-.6 2-.6 2.1-.3 2-.1 1.9v1.8l-.2 1.8v1.9l-.1 1.8-.1 1.9-.2 2-.3 2v4.2l.2 1.9.3 1.8.2 1.9.3 1.8.2 1.9.3 1.9.1 2 .2 2.1.3 2.2.5 2 .5 1.8.6 1.7.5 1.8.5 1.8.6 1.8.5 1.8.6 2 .5 2 .7 2 .8 2 .7 1.7.8 1.7.8 1.6.8 1.7.8 1.7.8 1.7.9 1.8.8 2 1 1.8 1 1.8 1 1.6 1 1.6 1 1.5 1 1.6 1 1.6 1 1.6 1 1.6 1 1.8 1.2 1.7 1.2 1.6 1.1 1.5 1.1 1.4 1.2 1.5 1 1.5 1.2 1.5 1.1 1.5 1.2 1.5L-32-30l1.2 1.5 1.2 1.5 1.2 1.4 1.2 1.5 1.2 1.4 1.2 1.4 1.2 1.4 1.2 1.5 1.2 1.4Z"/><path d="M-9.6-23.6v-3l1.2-2.7 2.2-2 2.8-1h3l2.7 1.2 2 2.1 1.1 2.8-.3-1.8-.3-1.9-.4-1.8-.3-1.8-.3-1.9-.3-1.8L3-39l-.3-1.8-.3-1.8-.3-1.7-.3-1.8-.2-1.8-.3-1.8-.2-1.8-.2-1.9-.3-1.8-.2-1.9-.3-1.8-.2-1.7-.2-1.7-.2-1.6-.1-1.8-.1-1.8-.1-1.9v-1.8l-.2-1.9v-1.8l-.1-1.9-.1-1.7-.2-1.6v-3.3l.2-1.8.1-1.9.2-1.8.1-1.9.2-1.8.1-1.8v-1.7l.1-1.6.1-1.6.3-1.7.4-1.8.4-1.8.4-1.8.5-1.8.4-1.8.4-1.8.3-1.7.2-1.5.3-1.6.5-1.6.7-1.7.7-1.7.7-1.7.7-1.8.7-1.7.7-1.7.5-1.6.4-1.6.6-1.5.7-1.5 1-1.5 1-1.6 1-1.5 1-1.6.9-1.5 1-1.6.7-1.5.7-1.5.9-1.5 1.1-1.5 1.3-1.4 1.4-1.5 1.3-1.4 1.4-1.5 1.3-1.4 1.2-1.5 1-1.5 1.1-1.3 1.3-1.2 1.5-1.1L34-165l1.5-1 1.6-1.1 1.5-1.1 1.5-1 1.6-.8 1.6-.5 1.9-.6 1.8-.6 1.9-.7 1.9-.7 1.8-.6 1.8-.4H56l1.7.3h3.5l1.9-.1 1.8-.1 1.8-.1 1.6.2 1.3.4 1.1.7 1.5.6 1.6.5 1.7.5 1.7.4 1.6.5 1.3.5.9.7.7.8 1.1 1 1.4 1 1.4 1 1.5 1 1.3.9 1.1.8.7.8.5.9.8 1.1 1 1.4 1.1 1.5 1.1 1.4 1 1.4 1 1.2.6 1 .5 1 .5 1.4.6 1.7.7 1.8.6 1.8.7 1.7.6 1.5.5 1.2.3 1.4.3 1.6.2 1.9.1 2 .2 2 .2 1.9.3 1.7.2 1.4.2 1.3-.1 1.6-.2 1.7-.3 1.7-.3 1.8-.2 1.8-.2 1.7-.1 1.6v1.5l-.2 1.5-.5 1.6-.7 1.8-.7 1.9-.7 1.8-.6 1.8-.5 1.8-.4 1.6-.5 1.5-.7 1.5-1 1.5-1 1.5-1 1.6-1 1.5-.8 1.6-.7 1.5-.8 1.4-1.2 1.4-1.3 1.4-1.4 1.3-1.4 1.4-1.2 1.3-1 1.4-1.1 1.2-1.3 1-1.4 1-1.5.8-1.5.7-1.5.6-1.6.2h-1.6l-1.6.2-1.7.4-1.6.3-1.6.1-1.4-.2-1.5-.4-1.6-.2L59-70l-1.5-.3-1.2-.5-1-.6L54-72l-1.4-.5-1.2-.6-.9-.7-.9-.8-1.1-1-1.2-.8-1-1-.7-.8-1-1-.9-1.1-.8-1-.7-1-.8-1.2-.8-1.2L40-86l-.7-1.2-.7-1.3-.8-1.4-.7-1.4 1 3-.3 3-1.4 2.9-2.4 2-3 1-3-.3-3-1.3-2-2.4.8 1.4.8 1.4.8 1.5 1 1.6 1 1.5 1 1.5 1 1.5 1.4 1.6 1.3 1.6 1.4 1.4 1.5 1.3 1.8 1.4 1.9 1.3 1.8 1.1 2 1 2 .9 2.2.6 1.9.5 1.7.5 1.9.3h2.1l2.3-.1h2l2-.2 2-.2 2-.6 2.1-.8 1.9-.6 1.7-.5 1.7-.6 1.7-.7 1.7-1 1.5-1.3 1.5-1 1.5-1 1.5-.8 1.6-.8 1.6-.8 1.9-.8 1.8-1 1.7-1.2 1.4-1.3 1.4-1.3 1.5-1.3 1.6-1.3 1.8-1.4 1.6-1.4 1.3-1.5 1.1-1.6 1-1.5 1.1-1.6 1-1.6 1.3-1.6 1.4-1.8 1.3-1.9 1-1.9.7-1.8.7-1.9.8-1.8.7-2 .9-1.9 1-2.1.7-2.2.5-2 .3-1.8.3-1.7.2-1.8.3-1.8.3-1.8.4-2 .3-2.4.2-2.4v-2.2l-.2-2-.1-2-.2-2-.2-2.1-.2-2.3-.3-2.5-.5-2.5-.6-2.1-.7-2-.7-1.7-.6-1.8-.7-1.9-.8-2.1-1.1-2.3-1.3-2.2-1.3-1.8-1.1-1.5-1.1-1.5-1.2-1.5-1.1-1.5-1.5-1.6-1.9-1.8-2-1.5-1.8-1.2-1.5-1-1.5-1-1.5-1-1.5-1-2-1-2.3-.8-2.4-.5-2-.4-1.9-.5-1.7-.4-1.7-.4-1.8-.4-2-.2-2.4.1-2.4.4-2.1.3-2 .2-1.8.2-1.8.1-2 .2-2 .5-2 .9-2 1-2 1-1.9.7-1.9.7-1.8.7-1.9.8-1.8 1-1.9 1-1.8 1.1L36-172l-1.6 1.1-1.6 1-1.5 1.1-1.6 1.1-1.6 1-1.7 1-2 1-1.7 1.3-1.6 1.3-1.4 1.4-1.4 1.5-1.4 1.4-1.3 1.4-1.4 1.5-1.6 1.4L11-152l-1.5 1.5-1.2 1.6-1 1.5-1 1.6-1 1.5-1 1.6-1 1.5-1 1.6-1.2 1.6-1.3 1.7-1.1 1.8-1 1.8-.7 1.7-.7 1.7-.7 1.8-.7 1.7-.8 1.7-.7 1.8-.8 1.8-1 2-.8 2-.6 1.9-.4 1.8-.4 1.8-.5 1.9-.4 1.8-.4 1.8-.5 1.8-.5 2-.5 2-.4 2.2-.3 2-.2 1.9-.2 1.8-.1 1.9-.2 1.8-.1 1.9-.2 1.9-.2 2-.2 2v7.9l.1 1.9.1 1.8v1.9l.1 1.9.1 2v2l.2 2 .2 2 .2 1.8.3 1.9.2 1.8.3 1.9.2 1.8.2 1.9.3 1.9.2 2 .3 1.9.3 1.9.3 1.8.3 1.8.4 1.9.3 1.8.3 1.8.3 1.9.3 1.8Z"/></g></svg>